<?xml version="1.0" standalone="no"?>
<!DOCTYPE svg PUBLIC "-//W3C//DTD SVG 20010904//EN"
 "http://www.w3.org/TR/2001/REC-SVG-20010904/DTD/svg10.dtd">
<svg version="1.0" xmlns="http://www.w3.org/2000/svg"
 width="500.000000pt" height="500.000000pt" viewBox="0 0 500.000000 500.000000"
 preserveAspectRatio="xMidYMid meet">
<metadata>
Created by potrace 1.14, written by Peter Selinger 2001-2017
</metadata>
<g transform="translate(0.000000,500.000000) scale(0.100000,-0.100000)"
fill="#000000" stroke="none">
<path d="M0 2500 l0 -2500 2500 0 2500 0 0 2500 0 2500 -2500 0 -2500 0 0
-2500z m1386 1634 c15 -11 37 -33 48 -48 20 -26 21 -42 24 -392 l3 -364 227 0
c162 0 234 -4 252 -13 42 -21 70 -83 70 -157 0 -74 -20 -122 -63 -154 -26 -20
-44 -21 -258 -24 l-230 -3 3 -827 3 -827 30 -60 c39 -78 86 -103 215 -117 75
-8 103 -7 168 8 112 25 157 23 192 -11 42 -40 64 -103 58 -167 -10 -97 -85
-138 -289 -158 -176 -18 -363 7 -474 62 -129 65 -208 186 -252 383 -14 60 -17
192 -20 892 l-4 822 -198 3 c-220 3 -234 7 -265 71 -40 86 -28 187 29 244 l33
33 201 0 201 0 0 349 c0 224 4 360 11 378 14 37 47 72 84 89 46 21 167 14 201
-12z m2346 -371 c44 -26 76 -75 84 -131 5 -31 -3 -123 -24 -281 -18 -129 -30
-236 -28 -238 2 -2 57 22 122 53 325 153 370 169 447 152 148 -31 190 -259 63
-346 -34 -23 -125 -47 -316 -82 -63 -11 -139 -25 -168 -31 l-52 -10 162 -170
c90 -94 173 -188 186 -209 29 -48 33 -131 9 -177 -34 -64 -128 -123 -198 -123
-41 0 -108 40 -138 83 -15 23 -70 119 -121 212 -52 94 -101 183 -111 198 l-17
29 -96 -189 c-115 -223 -149 -273 -208 -302 -131 -63 -288 30 -288 170 0 75
21 109 149 243 208 217 215 225 210 230 -2 2 -103 23 -224 46 -121 23 -235 46
-253 52 -44 13 -102 65 -118 105 -40 94 3 218 91 262 80 40 122 29 373 -94
118 -58 216 -104 218 -102 2 2 -7 84 -21 183 -35 260 -39 325 -26 367 29 87
98 130 198 124 36 -3 76 -13 95 -24z m-997 -2420 c102 -34 175 -142 175 -258
0 -107 -49 -189 -141 -240 -143 -78 -337 1 -383 156 -31 103 -10 194 61 270
76 81 183 108 288 72z"/>
</g>
</svg>
